<svg xmlns="http://www.w3.org/2000/svg" width="174.033" height="32.984" viewBox="0 0 174.033 32.984"><path d="M11.268-.176A5.558,5.558,0,0,1,8.578.387Q3.85.387,3.85-4.887V-15.539H.756V-18H3.85v-4.395l2.883-.932V-18h4.535v2.461H6.732V-5.4a4.2,4.2,0,0,0,.615,2.584,2.455,2.455,0,0,0,2.039.773,3.031,3.031,0,0,0,1.881-.6ZM30.059,0H27.176V-10.371Q27.176-16,22.992-16a4.561,4.561,0,0,0-3.551,1.626A6.059,6.059,0,0,0,18-10.2V0H15.117V-26.648H18v11.637h.07a6.547,6.547,0,0,1,5.906-3.41q6.082,0,6.082,7.33Zm6.908-22.57a1.826,1.826,0,0,1-1.318-.527,1.78,1.78,0,0,1-.545-1.336,1.809,1.809,0,0,1,.545-1.345,1.811,1.811,0,0,1,1.318-.536,1.862,1.862,0,0,1,1.345.536,1.794,1.794,0,0,1,.554,1.345,1.782,1.782,0,0,1-.554,1.318A1.846,1.846,0,0,1,36.967-22.57ZM38.373,0H35.49V-18h2.883Zm4.746-.65V-3.744A8.531,8.531,0,0,0,48.3-2q3.8,0,3.8-2.531a2.2,2.2,0,0,0-.325-1.222,3.241,3.241,0,0,0-.879-.888,6.765,6.765,0,0,0-1.3-.694q-.747-.308-1.608-.642a20.715,20.715,0,0,1-2.1-.958,6.346,6.346,0,0,1-1.512-1.09,4.055,4.055,0,0,1-.914-1.38,4.882,4.882,0,0,1-.308-1.811,4.3,4.3,0,0,1,.58-2.241,5.144,5.144,0,0,1,1.547-1.635,7.213,7.213,0,0,1,2.206-.993,9.785,9.785,0,0,1,2.558-.334,10.327,10.327,0,0,1,4.184.809V-14.7a8.153,8.153,0,0,0-4.57-1.3,5.342,5.342,0,0,0-1.459.185,3.572,3.572,0,0,0-1.116.519,2.4,2.4,0,0,0-.721.8,2.107,2.107,0,0,0-.255,1.028,2.466,2.466,0,0,0,.255,1.178,2.593,2.593,0,0,0,.747.844,5.71,5.71,0,0,0,1.2.668q.7.3,1.6.65a22.263,22.263,0,0,1,2.145.94,7.355,7.355,0,0,1,1.617,1.09,4.259,4.259,0,0,1,1.028,1.4,4.507,4.507,0,0,1,.36,1.881,4.435,4.435,0,0,1-.589,2.32A5.047,5.047,0,0,1,52.893-.861a7.206,7.206,0,0,1-2.268.967,11.2,11.2,0,0,1-2.689.316A10.212,10.212,0,0,1,43.119-.65ZM60.486.387a1.866,1.866,0,0,1-1.38-.58,1.909,1.909,0,0,1-.571-1.389,1.939,1.939,0,0,1,.571-1.4,1.852,1.852,0,0,1,1.38-.589,1.9,1.9,0,0,1,1.406.589,1.924,1.924,0,0,1,.58,1.4,1.9,1.9,0,0,1-.58,1.389A1.915,1.915,0,0,1,60.486.387Z" transform="translate(111.561 32.544)" fill="#707070"/><path d="M5.151-32.056h6.783L22.192-10.6l3.149-21.46h6.564L27.2,0H21.043L10.3-22.25,7.053,0H.439Zm46.289-.488q7.324,0,11.292,4.175T66.7-16.748A16.482,16.482,0,0,1,61.743-4.3Q56.787.464,48.828.439,41.772.415,37.708-3.821T33.643-15.356a16.522,16.522,0,0,1,4.98-12.292A17.513,17.513,0,0,1,51.44-32.544ZM60.083-16.65A10.5,10.5,0,0,0,57.532-24a8.626,8.626,0,0,0-6.7-2.808,9.82,9.82,0,0,0-7.41,3.357,11.309,11.309,0,0,0-3.137,8,10.486,10.486,0,0,0,2.576,7.3A8.465,8.465,0,0,0,49.438-5.3a9.938,9.938,0,0,0,7.507-3.345A11.3,11.3,0,0,0,60.083-16.65ZM72.192-32.056H91.846l-.855,5.664H84.443L80.585,0H74.048l3.809-26.392H71.411Zm23.145,0H112.7l-.853,5.664H101.12l-1.064,7.08h10.173l-.9,5.737H99.193L98.008-5.688H108.4L107.544,0H90.479Z" transform="translate(-0.439 32.544)" fill="#fbfbfb"/></svg>